STARTFONT 2.1
FONT -artwiz-mintsmild-bold-r-bold--8-80-75-75-p-90-ISO8859-1
SIZE 8 75 75
FONTBOUNDINGBOX 9 9 0 -1
STARTPROPERTIES 27
FONTNAME_REGISTRY ""
FOUNDRY "artwiz"
FAMILY_NAME "mintsmild"
WEIGHT_NAME "bold"
SLANT "r"
SETWIDTH_NAME "normal"
ADD_STYLE_NAME ""
PIXEL_SIZE 8
POINT_SIZE 80
RESOLUTION_X 75
RESOLUTION_Y 75
SPACING "p"
AVERAGE_WIDTH 90
CHARSET_REGISTRY "ISO8859"
CHARSET_ENCODING "1"
COPYRIGHT "artwiz, latin1 and bold chars by Sergio Martins"
FACE_NAME "mintsmild"
WEIGHT 10
RESOLUTION 99
X_HEIGHT 6
QUAD_WIDTH 7
_XMBDFED_INFO "Edited with xmbdfed 4.7."
DEFAULT_CHAR 63
FONT_ASCENT 8
FONT_DESCENT 2
_ORIGINAL_FONT_NAME "mintsmild"
_GBDFED_INFO "Edited with gbdfed 1.1."
ENDPROPERTIES
CHARS 190
STARTCHAR char32
ENCODING 32
SWIDTH 720 0
DWIDTH 6 0
BBX 0 0 0 0
BITMAP
ENDCHAR
STARTCHAR char33
ENCODING 33
SWIDTH 480 0
DWIDTH 4 0
BBX 2 6 1 -1
BITMAP
C0
C0
C0
C0
00
C0
ENDCHAR
STARTCHAR char34
ENCODING 34
SWIDTH 840 0
DWIDTH 7 0
BBX 5 3 1 3
BITMAP
D8
D8
D8
ENDCHAR
STARTCHAR char35
ENCODING 35
SWIDTH 1080 0
DWIDTH 9 0
BBX 7 5 0 0
BITMAP
6C
EE
6C
EE
6C
ENDCHAR
STARTCHAR char36
ENCODING 36
SWIDTH 960 0
DWIDTH 8 0
BBX 6 7 1 -1
BITMAP
30
78
F0
78
3C
F8
30
ENDCHAR
STARTCHAR char37
ENCODING 37
SWIDTH 1080 0
DWIDTH 9 0
BBX 7 6 1 0
BITMAP
C6
CC
18
30
66
C6
ENDCHAR
STARTCHAR char38
ENCODING 38
SWIDTH 840 0
DWIDTH 7 0
BBX 5 7 1 -1
BITMAP
30
78
D0
F8
D0
78
30
ENDCHAR
STARTCHAR char39
ENCODING 39
SWIDTH 480 0
DWIDTH 4 0
BBX 2 3 1 3
BITMAP
C0
C0
C0
ENDCHAR
STARTCHAR char40
ENCODING 40
SWIDTH 600 0
DWIDTH 5 0
BBX 3 8 1 -1
BITMAP
60
C0
C0
C0
C0
C0
C0
60
ENDCHAR
STARTCHAR char41
ENCODING 41
SWIDTH 600 0
DWIDTH 5 0
BBX 3 8 1 -1
BITMAP
C0
60
60
60
60
60
60
C0
ENDCHAR
STARTCHAR char42
ENCODING 42
SWIDTH 960 0
DWIDTH 8 0
BBX 6 5 1 0
BITMAP
30
FC
78
FC
30
ENDCHAR
STARTCHAR char43
ENCODING 43
SWIDTH 960 0
DWIDTH 8 0
BBX 6 5 1 0
BITMAP
30
30
FC
30
30
ENDCHAR
STARTCHAR char44
ENCODING 44
SWIDTH 480 0
DWIDTH 4 0
BBX 2 3 1 -1
BITMAP
C0
C0
C0
ENDCHAR
STARTCHAR char45
ENCODING 45
SWIDTH 840 0
DWIDTH 7 0
BBX 5 1 1 2
BITMAP
F8
ENDCHAR
STARTCHAR char46
ENCODING 46
SWIDTH 480 0
DWIDTH 4 0
BBX 2 2 1 0
BITMAP
C0
C0
ENDCHAR
STARTCHAR char47
ENCODING 47
SWIDTH 1200 0
DWIDTH 10 0
BBX 8 7 1 -1
BITMAP
03
06
0C
18
30
60
C0
ENDCHAR
STARTCHAR char48
ENCODING 48
SWIDTH 960 0
DWIDTH 8 0
BBX 6 5 1 0
BITMAP
78
CC
CC
CC
78
ENDCHAR
STARTCHAR char49
ENCODING 49
SWIDTH 480 0
DWIDTH 4 0
BBX 2 5 1 0
BITMAP
C0
C0
C0
C0
C0
ENDCHAR
STARTCHAR char50
ENCODING 50
SWIDTH 960 0
DWIDTH 8 0
BBX 6 5 1 0
BITMAP
78
0C
78
C0
FC
ENDCHAR
STARTCHAR char51
ENCODING 51
SWIDTH 960 0
DWIDTH 8 0
BBX 6 5 1 0
BITMAP
F8
0C
7C
0C
F8
ENDCHAR
STARTCHAR char52
ENCODING 52
SWIDTH 960 0
DWIDTH 8 0
BBX 6 5 1 0
BITMAP
CC
CC
7C
0C
0C
ENDCHAR
STARTCHAR char53
ENCODING 53
SWIDTH 960 0
DWIDTH 8 0
BBX 6 5 1 0
BITMAP
F8
C0
F8
0C
F8
ENDCHAR
STARTCHAR char54
ENCODING 54
SWIDTH 960 0
DWIDTH 8 0
BBX 6 5 1 0
BITMAP
70
C0
F8
CC
78
ENDCHAR
STARTCHAR char55
ENCODING 55
SWIDTH 840 0
DWIDTH 7 0
BBX 6 5 1 0
BITMAP
FC
0C
18
30
30
ENDCHAR
STARTCHAR char56
ENCODING 56
SWIDTH 960 0
DWIDTH 8 0
BBX 6 5 1 0
BITMAP
78
CC
78
CC
78
ENDCHAR
STARTCHAR char57
ENCODING 57
SWIDTH 960 0
DWIDTH 8 0
BBX 6 5 1 0
BITMAP
78
CC
7C
0C
18
ENDCHAR
STARTCHAR char58
ENCODING 58
SWIDTH 480 0
DWIDTH 4 0
BBX 2 5 1 0
BITMAP
C0
C0
00
C0
C0
ENDCHAR
STARTCHAR char59
ENCODING 59
SWIDTH 480 0
DWIDTH 4 0
BBX 2 6 1 -1
BITMAP
C0
C0
00
C0
C0
C0
ENDCHAR
STARTCHAR char60
ENCODING 60
SWIDTH 840 0
DWIDTH 7 0
BBX 5 7 1 -1
BITMAP
18
30
60
C0
60
30
18
ENDCHAR
STARTCHAR char61
ENCODING 61
SWIDTH 840 0
DWIDTH 7 0
BBX 5 3 1 1
BITMAP
F8
00
F8
ENDCHAR
STARTCHAR char62
ENCODING 62
SWIDTH 840 0
DWIDTH 7 0
BBX 5 7 1 -1
BITMAP
C0
60
30
18
30
60
C0
ENDCHAR
STARTCHAR char63
ENCODING 63
SWIDTH 840 0
DWIDTH 7 0
BBX 5 6 1 -1
BITMAP
F0
18
30
60
00
60
ENDCHAR
STARTCHAR char64
ENCODING 64
SWIDTH 840 0
DWIDTH 7 0
BBX 5 5 1 0
BITMAP
70
F8
F8
C0
78
ENDCHAR
STARTCHAR char65
ENCODING 65
SWIDTH 960 0
DWIDTH 8 0
BBX 6 5 1 0
BITMAP
78
CC
FC
CC
CC
ENDCHAR
STARTCHAR char66
ENCODING 66
SWIDTH 960 0
DWIDTH 8 0
BBX 6 5 1 0
BITMAP
F8
CC
F8
CC
F8
ENDCHAR
STARTCHAR char67
ENCODING 67
SWIDTH 960 0
DWIDTH 8 0
BBX 6 5 1 0
BITMAP
7C
C0
C0
C0
7C
ENDCHAR
STARTCHAR char68
ENCODING 68
SWIDTH 960 0
DWIDTH 8 0
BBX 6 5 1 0
BITMAP
F8
CC
CC
CC
F8
ENDCHAR
STARTCHAR char69
ENCODING 69
SWIDTH 960 0
DWIDTH 8 0
BBX 6 5 1 0
BITMAP
FC
C0
F8
C0
FC
ENDCHAR
STARTCHAR char70
ENCODING 70
SWIDTH 960 0
DWIDTH 8 0
BBX 6 5 1 0
BITMAP
FC
C0
F8
C0
C0
ENDCHAR
STARTCHAR char71
ENCODING 71
SWIDTH 960 0
DWIDTH 8 0
BBX 6 5 1 0
BITMAP
70
C0
FC
CC
7C
ENDCHAR
STARTCHAR char72
ENCODING 72
SWIDTH 960 0
DWIDTH 8 0
BBX 6 5 1 0
BITMAP
CC
CC
FC
CC
CC
ENDCHAR
STARTCHAR char73
ENCODING 73
SWIDTH 480 0
DWIDTH 4 0
BBX 2 5 1 0
BITMAP
C0
C0
C0
C0
C0
ENDCHAR
STARTCHAR char74
ENCODING 74
SWIDTH 720 0
DWIDTH 6 0
BBX 4 5 1 0
BITMAP
30
30
30
30
E0
ENDCHAR
STARTCHAR char75
ENCODING 75
SWIDTH 960 0
DWIDTH 8 0
BBX 6 5 1 0
BITMAP
CC
D8
F0
D8
CC
ENDCHAR
STARTCHAR char76
ENCODING 76
SWIDTH 840 0
DWIDTH 7 0
BBX 5 5 1 0
BITMAP
C0
C0
C0
C0
78
ENDCHAR
STARTCHAR char77
ENCODING 77
SWIDTH 960 0
DWIDTH 8 0
BBX 6 5 1 0
BITMAP
CC
FC
FC
CC
CC
ENDCHAR
STARTCHAR char78
ENCODING 78
SWIDTH 960 0
DWIDTH 8 0
BBX 6 5 1 0
BITMAP
CC
EC
FC
DC
CC
ENDCHAR
STARTCHAR char79
ENCODING 79
SWIDTH 960 0
DWIDTH 8 0
BBX 6 5 1 0
BITMAP
78
CC
CC
CC
78
ENDCHAR
STARTCHAR char80
ENCODING 80
SWIDTH 960 0
DWIDTH 8 0
BBX 6 5 1 0
BITMAP
F8
CC
F8
C0
C0
ENDCHAR
STARTCHAR char81
ENCODING 81
SWIDTH 960 0
DWIDTH 8 0
BBX 6 5 1 0
BITMAP
78
CC
CC
D8
7C
ENDCHAR
STARTCHAR char82
ENCODING 82
SWIDTH 960 0
DWIDTH 8 0
BBX 6 5 1 0
BITMAP
F8
CC
F8
CC
CC
ENDCHAR
STARTCHAR char83
ENCODING 83
SWIDTH 960 0
DWIDTH 8 0
BBX 6 5 1 0
BITMAP
78
C0
78
0C
F8
ENDCHAR
STARTCHAR char84
ENCODING 84
SWIDTH 960 0
DWIDTH 8 0
BBX 6 5 1 0
BITMAP
FC
30
30
30
30
ENDCHAR
STARTCHAR char85
ENCODING 85
SWIDTH 840 0
DWIDTH 7 0
BBX 6 5 1 0
BITMAP
CC
CC
CC
CC
78
ENDCHAR
STARTCHAR char86
ENCODING 86
SWIDTH 960 0
DWIDTH 8 0
BBX 6 5 1 0
BITMAP
CC
CC
78
78
30
ENDCHAR
STARTCHAR char87
ENCODING 87
SWIDTH 960 0
DWIDTH 8 0
BBX 6 5 1 0
BITMAP
CC
CC
FC
FC
CC
ENDCHAR
STARTCHAR char88
ENCODING 88
SWIDTH 960 0
DWIDTH 8 0
BBX 6 5 1 0
BITMAP
CC
78
30
78
CC
ENDCHAR
STARTCHAR char89
ENCODING 89
SWIDTH 960 0
DWIDTH 8 0
BBX 6 5 1 0
BITMAP
CC
78
30
30
30
ENDCHAR
STARTCHAR char90
ENCODING 90
SWIDTH 960 0
DWIDTH 8 0
BBX 6 5 1 0
BITMAP
FC
18
30
60
FC
ENDCHAR
STARTCHAR char91
ENCODING 91
SWIDTH 720 0
DWIDTH 6 0
BBX 4 7 1 -1
BITMAP
F0
C0
C0
C0
C0
C0
F0
ENDCHAR
STARTCHAR char92
ENCODING 92
SWIDTH 1200 0
DWIDTH 10 0
BBX 8 7 1 -1
BITMAP
C0
60
30
18
0C
06
03
ENDCHAR
STARTCHAR char93
ENCODING 93
SWIDTH 720 0
DWIDTH 6 0
BBX 4 7 1 -1
BITMAP
F0
30
30
30
30
30
F0
ENDCHAR
STARTCHAR char94
ENCODING 94
SWIDTH 960 0
DWIDTH 8 0
BBX 6 3 1 3
BITMAP
30
78
CC
ENDCHAR
STARTCHAR char95
ENCODING 95
SWIDTH 960 0
DWIDTH 8 0
BBX 6 1 1 -1
BITMAP
FC
ENDCHAR
STARTCHAR char96
ENCODING 96
SWIDTH 480 0
DWIDTH 4 0
BBX 2 3 1 3
BITMAP
C0
C0
C0
ENDCHAR
STARTCHAR char97
ENCODING 97
SWIDTH 960 0
DWIDTH 8 0
BBX 6 5 1 0
BITMAP
78
CC
FC
CC
CC
ENDCHAR
STARTCHAR char98
ENCODING 98
SWIDTH 960 0
DWIDTH 8 0
BBX 6 5 1 0
BITMAP
F8
CC
F8
CC
F8
ENDCHAR
STARTCHAR char99
ENCODING 99
SWIDTH 960 0
DWIDTH 8 0
BBX 6 5 1 0
BITMAP
7C
C0
C0
C0
7C
ENDCHAR
STARTCHAR char100
ENCODING 100
SWIDTH 960 0
DWIDTH 8 0
BBX 6 5 1 0
BITMAP
F8
CC
CC
CC
F8
ENDCHAR
STARTCHAR char101
ENCODING 101
SWIDTH 960 0
DWIDTH 8 0
BBX 6 5 1 0
BITMAP
FC
C0
F8
C0
FC
ENDCHAR
STARTCHAR char102
ENCODING 102
SWIDTH 960 0
DWIDTH 8 0
BBX 6 5 1 0
BITMAP
FC
C0
F8
C0
C0
ENDCHAR
STARTCHAR char103
ENCODING 103
SWIDTH 960 0
DWIDTH 8 0
BBX 6 5 1 0
BITMAP
70
C0
FC
CC
7C
ENDCHAR
STARTCHAR char104
ENCODING 104
SWIDTH 960 0
DWIDTH 8 0
BBX 6 5 1 0
BITMAP
CC
CC
FC
CC
CC
ENDCHAR
STARTCHAR char105
ENCODING 105
SWIDTH 480 0
DWIDTH 4 0
BBX 2 5 1 0
BITMAP
C0
C0
C0
C0
C0
ENDCHAR
STARTCHAR char106
ENCODING 106
SWIDTH 720 0
DWIDTH 6 0
BBX 4 5 1 0
BITMAP
30
30
30
30
E0
ENDCHAR
STARTCHAR char107
ENCODING 107
SWIDTH 960 0
DWIDTH 8 0
BBX 6 5 1 0
BITMAP
CC
D8
F0
D8
CC
ENDCHAR
STARTCHAR char108
ENCODING 108
SWIDTH 840 0
DWIDTH 7 0
BBX 5 5 1 0
BITMAP
C0
C0
C0
C0
78
ENDCHAR
STARTCHAR char109
ENCODING 109
SWIDTH 960 0
DWIDTH 8 0
BBX 6 5 1 0
BITMAP
CC
FC
FC
CC
CC
ENDCHAR
STARTCHAR char78
ENCODING 110
SWIDTH 960 0
DWIDTH 8 0
BBX 6 5 1 0
BITMAP
CC
EC
FC
DC
CC
ENDCHAR
STARTCHAR char111
ENCODING 111
SWIDTH 960 0
DWIDTH 8 0
BBX 6 5 1 0
BITMAP
78
CC
CC
CC
78
ENDCHAR
STARTCHAR char112
ENCODING 112
SWIDTH 960 0
DWIDTH 8 0
BBX 6 5 1 0
BITMAP
F8
CC
F8
C0
C0
ENDCHAR
STARTCHAR char113
ENCODING 113
SWIDTH 960 0
DWIDTH 8 0
BBX 6 5 1 0
BITMAP
78
CC
CC
D8
7C
ENDCHAR
STARTCHAR char114
ENCODING 114
SWIDTH 960 0
DWIDTH 8 0
BBX 6 5 1 0
BITMAP
F8
CC
F8
CC
CC
ENDCHAR
STARTCHAR char115
ENCODING 115
SWIDTH 960 0
DWIDTH 8 0
BBX 6 5 1 0
BITMAP
78
C0
78
0C
F8
ENDCHAR
STARTCHAR char116
ENCODING 116
SWIDTH 960 0
DWIDTH 8 0
BBX 6 5 1 0
BITMAP
FC
30
30
30
30
ENDCHAR
STARTCHAR char117
ENCODING 117
SWIDTH 960 0
DWIDTH 8 0
BBX 6 5 1 0
BITMAP
CC
CC
CC
CC
78
ENDCHAR
STARTCHAR char118
ENCODING 118
SWIDTH 960 0
DWIDTH 8 0
BBX 6 5 1 0
BITMAP
CC
CC
78
78
30
ENDCHAR
STARTCHAR char119
ENCODING 119
SWIDTH 960 0
DWIDTH 8 0
BBX 6 5 1 0
BITMAP
CC
CC
FC
FC
CC
ENDCHAR
STARTCHAR char120
ENCODING 120
SWIDTH 960 0
DWIDTH 8 0
BBX 6 5 1 0
BITMAP
CC
78
30
78
CC
ENDCHAR
STARTCHAR char121
ENCODING 121
SWIDTH 960 0
DWIDTH 8 0
BBX 6 5 1 0
BITMAP
CC
78
30
30
30
ENDCHAR
STARTCHAR char122
ENCODING 122
SWIDTH 960 0
DWIDTH 8 0
BBX 6 5 1 0
BITMAP
FC
18
30
60
FC
ENDCHAR
STARTCHAR char123
ENCODING 123
SWIDTH 960 0
DWIDTH 8 0
BBX 6 7 1 -1
BITMAP
3C
30
30
F0
30
30
3C
ENDCHAR
STARTCHAR char124
ENCODING 124
SWIDTH 480 0
DWIDTH 4 0
BBX 2 7 1 -1
BITMAP
C0
C0
C0
C0
C0
C0
C0
ENDCHAR
STARTCHAR char125
ENCODING 125
SWIDTH 960 0
DWIDTH 8 0
BBX 6 7 1 -1
BITMAP
F0
30
30
3C
30
30
F0
ENDCHAR
STARTCHAR char126
ENCODING 126
SWIDTH 960 0
DWIDTH 8 0
BBX 6 3 1 2
BITMAP
60
FC
18
ENDCHAR
STARTCHAR char129
ENCODING 129
SWIDTH 0 0
DWIDTH 0 0
BBX 0 0 0 0
BITMAP
ENDCHAR
STARTCHAR char33
ENCODING 161
SWIDTH 480 0
DWIDTH 4 0
BBX 2 6 1 -1
BITMAP
C0
00
C0
C0
C0
C0
ENDCHAR
STARTCHAR char67
ENCODING 162
SWIDTH 960 0
DWIDTH 8 0
BBX 6 7 1 -1
BITMAP
30
7C
B0
B0
B0
7C
30
ENDCHAR
STARTCHAR char163
ENCODING 163
SWIDTH 840 0
DWIDTH 7 0
BBX 5 5 1 0
BITMAP
78
60
F0
60
F8
ENDCHAR
STARTCHAR char35
ENCODING 164
SWIDTH 960 0
DWIDTH 8 0
BBX 6 5 1 1
BITMAP
CC
78
78
78
CC
ENDCHAR
STARTCHAR char164
ENCODING 165
SWIDTH 960 0
DWIDTH 8 0
BBX 6 7 1 0
BITMAP
CC
78
30
78
30
78
30
ENDCHAR
STARTCHAR char166
ENCODING 166
SWIDTH 960 0
DWIDTH 8 0
BBX 2 5 1 1
BITMAP
C0
C0
00
C0
C0
ENDCHAR
STARTCHAR char167
ENCODING 167
SWIDTH 840 0
DWIDTH 7 0
BBX 4 7 2 0
BITMAP
70
C0
E0
F0
70
30
E0
ENDCHAR
STARTCHAR char168
ENCODING 168
SWIDTH 960 0
DWIDTH 8 0
BBX 5 1 2 5
BITMAP
D8
ENDCHAR
STARTCHAR char174
ENCODING 169
SWIDTH 1080 0
DWIDTH 9 0
BBX 8 8 1 0
BITMAP
7E
C3
DF
F3
F3
DF
C3
7E
ENDCHAR
STARTCHAR char170
ENCODING 170
SWIDTH 720 0
DWIDTH 6 0
BBX 4 3 1 4
BITMAP
70
B0
70
ENDCHAR
STARTCHAR char187
ENCODING 171
SWIDTH 1080 0
DWIDTH 9 0
BBX 7 5 1 1
BITMAP
36
6C
D8
6C
36
ENDCHAR
STARTCHAR char172
ENCODING 172
SWIDTH 840 0
DWIDTH 7 0
BBX 4 2 2 2
BITMAP
F0
30
ENDCHAR
STARTCHAR char174
ENCODING 174
SWIDTH 1080 0
DWIDTH 9 0
BBX 8 8 1 0
BITMAP
7E
C3
FF
E7
FB
E7
C3
7E
ENDCHAR
STARTCHAR char175
ENCODING 175
SWIDTH 840 0
DWIDTH 7 0
BBX 4 1 2 5
BITMAP
F0
ENDCHAR
STARTCHAR char186
ENCODING 176
SWIDTH 840 0
DWIDTH 7 0
BBX 5 4 1 3
BITMAP
F8
D8
D8
F8
ENDCHAR
STARTCHAR char177
ENCODING 177
SWIDTH 840 0
DWIDTH 7 0
BBX 4 5 2 1
BITMAP
60
F0
60
00
F0
ENDCHAR
STARTCHAR char189
ENCODING 178
SWIDTH 600 0
DWIDTH 5 0
BBX 3 4 1 3
BITMAP
E0
60
C0
E0
ENDCHAR
STARTCHAR char189
ENCODING 179
SWIDTH 600 0
DWIDTH 5 0
BBX 3 5 1 2
BITMAP
E0
60
E0
60
E0
ENDCHAR
STARTCHAR char180
ENCODING 180
SWIDTH 840 0
DWIDTH 7 0
BBX 3 2 3 5
BITMAP
60
C0
ENDCHAR
STARTCHAR char117
ENCODING 181
SWIDTH 960 0
DWIDTH 8 0
BBX 6 6 1 -1
BITMAP
CC
CC
CC
CC
FC
C0
ENDCHAR
STARTCHAR char182
ENCODING 182
SWIDTH 1080 0
DWIDTH 9 0
BBX 7 6 1 0
BITMAP
FE
DA
DA
FA
1A
1A
ENDCHAR
STARTCHAR char183
ENCODING 183
SWIDTH 720 0
DWIDTH 6 0
BBX 2 2 3 3
BITMAP
C0
C0
ENDCHAR
STARTCHAR char184
ENCODING 184
SWIDTH 840 0
DWIDTH 7 0
BBX 4 3 2 1
BITMAP
60
30
F0
ENDCHAR
STARTCHAR char188
ENCODING 185
SWIDTH 600 0
DWIDTH 5 0
BBX 3 4 1 3
BITMAP
60
E0
60
60
ENDCHAR
STARTCHAR char186
ENCODING 186
SWIDTH 840 0
DWIDTH 7 0
BBX 5 4 1 3
BITMAP
F8
D8
D8
F8
ENDCHAR
STARTCHAR char187
ENCODING 187
SWIDTH 1080 0
DWIDTH 9 0
BBX 7 5 1 1
BITMAP
D8
6C
36
6C
D8
ENDCHAR
STARTCHAR char188
ENCODING 188
SWIDTH 1080 0
DWIDTH 9 0
BBX 7 6 1 1
BITMAP
60
E0
66
76
1E
06
ENDCHAR
STARTCHAR char189
ENCODING 189
SWIDTH 960 0
DWIDTH 8 0
BBX 6 6 1 1
BITMAP
60
E0
7C
6C
18
1C
ENDCHAR
STARTCHAR char189
ENCODING 190
SWIDTH 1080 0
DWIDTH 9 0
BBX 7 7 1 0
BITMAP
C0
60
C0
66
D6
1E
06
ENDCHAR
STARTCHAR char63
ENCODING 191
SWIDTH 840 0
DWIDTH 7 0
BBX 5 6 1 -1
BITMAP
30
00
30
60
C0
78
ENDCHAR
STARTCHAR char196
ENCODING 192
SWIDTH 960 0
DWIDTH 8 0
BBX 6 8 1 0
BITMAP
60
30
00
78
CC
FC
CC
CC
ENDCHAR
STARTCHAR char196
ENCODING 193
SWIDTH 960 0
DWIDTH 8 0
BBX 6 8 1 0
BITMAP
18
30
00
78
CC
FC
CC
CC
ENDCHAR
STARTCHAR char196
ENCODING 194
SWIDTH 960 0
DWIDTH 8 0
BBX 6 8 1 0
BITMAP
30
78
00
78
CC
FC
CC
CC
ENDCHAR
STARTCHAR char196
ENCODING 195
SWIDTH 960 0
DWIDTH 8 0
BBX 6 8 1 0
BITMAP
6C
D8
00
78
CC
FC
CC
CC
ENDCHAR
STARTCHAR char196
ENCODING 196
SWIDTH 960 0
DWIDTH 8 0
BBX 6 7 1 0
BITMAP
CC
00
78
CC
FC
CC
CC
ENDCHAR
STARTCHAR char197
ENCODING 197
SWIDTH 960 0
DWIDTH 8 0
BBX 6 7 1 0
BITMAP
30
00
78
CC
FC
CC
CC
ENDCHAR
STARTCHAR char229
ENCODING 198
SWIDTH 1080 0
DWIDTH 9 0
BBX 8 5 1 0
BITMAP
7F
CC
FE
CC
CF
ENDCHAR
STARTCHAR char99
ENCODING 199
SWIDTH 960 0
DWIDTH 8 0
BBX 6 6 1 -1
BITMAP
7C
C0
C0
C0
7C
18
ENDCHAR
STARTCHAR char69
ENCODING 200
SWIDTH 960 0
DWIDTH 8 0
BBX 6 8 1 0
BITMAP
60
30
00
FC
C0
F8
C0
FC
ENDCHAR
STARTCHAR char69
ENCODING 201
SWIDTH 960 0
DWIDTH 8 0
BBX 6 8 1 0
BITMAP
18
30
00
FC
C0
F8
C0
FC
ENDCHAR
STARTCHAR char69
ENCODING 202
SWIDTH 960 0
DWIDTH 8 0
BBX 6 8 1 0
BITMAP
30
78
00
FC
C0
F8
C0
FC
ENDCHAR
STARTCHAR char69
ENCODING 203
SWIDTH 960 0
DWIDTH 8 0
BBX 6 7 1 0
BITMAP
CC
00
FC
C0
F8
C0
FC
ENDCHAR
STARTCHAR char105
ENCODING 204
SWIDTH 480 0
DWIDTH 4 0
BBX 3 7 0 0
BITMAP
C0
60
00
60
60
60
60
ENDCHAR
STARTCHAR char105
ENCODING 205
SWIDTH 480 0
DWIDTH 4 0
BBX 3 7 1 0
BITMAP
60
C0
00
C0
C0
C0
C0
ENDCHAR
STARTCHAR char105
ENCODING 206
SWIDTH 480 0
DWIDTH 4 0
BBX 4 7 0 0
BITMAP
60
F0
00
60
60
60
60
ENDCHAR
STARTCHAR char105
ENCODING 207
SWIDTH 720 0
DWIDTH 6 0
BBX 6 7 0 0
BITMAP
CC
00
30
30
30
30
30
ENDCHAR
STARTCHAR char68
ENCODING 208
SWIDTH 1080 0
DWIDTH 9 0
BBX 7 5 1 0
BITMAP
7C
66
F6
66
7C
ENDCHAR
STARTCHAR char78
ENCODING 209
SWIDTH 960 0
DWIDTH 8 0
BBX 6 7 1 0
BITMAP
6C
D8
00
EC
FC
DC
CC
ENDCHAR
STARTCHAR char214
ENCODING 210
SWIDTH 960 0
DWIDTH 8 0
BBX 6 8 1 0
BITMAP
60
30
00
78
CC
CC
CC
78
ENDCHAR
STARTCHAR char214
ENCODING 211
SWIDTH 960 0
DWIDTH 8 0
BBX 6 8 1 0
BITMAP
18
30
00
78
CC
CC
CC
78
ENDCHAR
STARTCHAR char214
ENCODING 212
SWIDTH 960 0
DWIDTH 8 0
BBX 6 8 1 0
BITMAP
30
78
00
78
CC
CC
CC
78
ENDCHAR
STARTCHAR char214
ENCODING 213
SWIDTH 960 0
DWIDTH 8 0
BBX 6 8 1 0
BITMAP
6C
D8
00
78
CC
CC
CC
78
ENDCHAR
STARTCHAR char214
ENCODING 214
SWIDTH 960 0
DWIDTH 8 0
BBX 6 7 1 0
BITMAP
CC
00
78
CC
CC
CC
78
ENDCHAR
STARTCHAR char215
ENCODING 215
SWIDTH 720 0
DWIDTH 6 0
BBX 4 3 1 2
BITMAP
F0
60
F0
ENDCHAR
STARTCHAR char214
ENCODING 216
SWIDTH 960 0
DWIDTH 8 0
BBX 6 7 1 -1
BITMAP
0C
78
DC
FC
EC
78
C0
ENDCHAR
STARTCHAR char117
ENCODING 217
SWIDTH 960 0
DWIDTH 8 0
BBX 6 7 1 0
BITMAP
60
30
CC
CC
CC
CC
78
ENDCHAR
STARTCHAR char117
ENCODING 218
SWIDTH 960 0
DWIDTH 8 0
BBX 6 7 1 0
BITMAP
18
30
CC
CC
CC
CC
78
ENDCHAR
STARTCHAR char117
ENCODING 219
SWIDTH 960 0
DWIDTH 8 0
BBX 6 7 1 0
BITMAP
30
78
00
CC
CC
CC
78
ENDCHAR
STARTCHAR char117
ENCODING 220
SWIDTH 960 0
DWIDTH 8 0
BBX 6 7 1 0
BITMAP
CC
00
CC
CC
CC
CC
78
ENDCHAR
STARTCHAR char121
ENCODING 221
SWIDTH 960 0
DWIDTH 8 0
BBX 6 7 1 0
BITMAP
18
30
CC
78
30
30
30
ENDCHAR
STARTCHAR char112
ENCODING 222
SWIDTH 960 0
DWIDTH 8 0
BBX 6 7 1 0
BITMAP
C0
C0
FC
CC
FC
C0
C0
ENDCHAR
STARTCHAR char66
ENCODING 223
SWIDTH 960 0
DWIDTH 8 0
BBX 6 6 1 -1
BITMAP
F8
D8
CC
CC
FC
C0
ENDCHAR
STARTCHAR char196
ENCODING 224
SWIDTH 960 0
DWIDTH 8 0
BBX 6 8 1 0
BITMAP
60
30
00
78
CC
FC
CC
CC
ENDCHAR
STARTCHAR char196
ENCODING 225
SWIDTH 960 0
DWIDTH 8 0
BBX 6 8 1 0
BITMAP
18
30
00
78
CC
FC
CC
CC
ENDCHAR
STARTCHAR char196
ENCODING 226
SWIDTH 960 0
DWIDTH 8 0
BBX 6 8 1 0
BITMAP
30
78
00
78
CC
FC
CC
CC
ENDCHAR
STARTCHAR char196
ENCODING 227
SWIDTH 960 0
DWIDTH 8 0
BBX 6 8 1 0
BITMAP
6C
D8
00
78
CC
FC
CC
CC
ENDCHAR
STARTCHAR char228
ENCODING 228
SWIDTH 960 0
DWIDTH 8 0
BBX 6 7 1 0
BITMAP
CC
00
78
CC
FC
CC
CC
ENDCHAR
STARTCHAR char229
ENCODING 229
SWIDTH 960 0
DWIDTH 8 0
BBX 6 7 1 0
BITMAP
30
00
78
CC
FC
CC
CC
ENDCHAR
STARTCHAR char229
ENCODING 230
SWIDTH 1080 0
DWIDTH 9 0
BBX 8 5 1 0
BITMAP
7F
CC
FE
CC
CF
ENDCHAR
STARTCHAR char99
ENCODING 231
SWIDTH 960 0
DWIDTH 8 0
BBX 6 6 1 -1
BITMAP
7C
C0
C0
C0
7C
18
ENDCHAR
STARTCHAR char69
ENCODING 232
SWIDTH 960 0
DWIDTH 8 0
BBX 6 8 1 0
BITMAP
60
30
00
FC
C0
F8
C0
FC
ENDCHAR
STARTCHAR char69
ENCODING 233
SWIDTH 960 0
DWIDTH 8 0
BBX 6 8 1 0
BITMAP
18
30
00
FC
C0
F8
C0
FC
ENDCHAR
STARTCHAR char69
ENCODING 234
SWIDTH 960 0
DWIDTH 8 0
BBX 6 8 1 0
BITMAP
30
78
00
FC
C0
F8
C0
FC
ENDCHAR
STARTCHAR char69
ENCODING 235
SWIDTH 960 0
DWIDTH 8 0
BBX 6 7 1 0
BITMAP
CC
00
FC
C0
F8
C0
FC
ENDCHAR
STARTCHAR char105
ENCODING 236
SWIDTH 480 0
DWIDTH 4 0
BBX 3 7 0 0
BITMAP
C0
60
00
60
60
60
60
ENDCHAR
STARTCHAR char105
ENCODING 237
SWIDTH 480 0
DWIDTH 4 0
BBX 3 7 1 0
BITMAP
60
C0
00
C0
C0
C0
C0
ENDCHAR
STARTCHAR char105
ENCODING 238
SWIDTH 480 0
DWIDTH 4 0
BBX 4 7 0 0
BITMAP
60
F0
00
60
60
60
60
ENDCHAR
STARTCHAR char105
ENCODING 239
SWIDTH 720 0
DWIDTH 6 0
BBX 6 7 0 0
BITMAP
CC
00
30
30
30
30
30
ENDCHAR
STARTCHAR char214
ENCODING 240
SWIDTH 840 0
DWIDTH 7 0
BBX 5 7 1 0
BITMAP
48
70
D8
78
D8
D8
78
ENDCHAR
STARTCHAR char78
ENCODING 241
SWIDTH 960 0
DWIDTH 8 0
BBX 6 7 1 0
BITMAP
6C
D8
00
EC
FC
DC
CC
ENDCHAR
STARTCHAR char214
ENCODING 242
SWIDTH 960 0
DWIDTH 8 0
BBX 6 8 1 0
BITMAP
60
30
00
78
CC
CC
CC
78
ENDCHAR
STARTCHAR char214
ENCODING 243
SWIDTH 960 0
DWIDTH 8 0
BBX 6 8 1 0
BITMAP
18
30
00
78
CC
CC
CC
78
ENDCHAR
STARTCHAR char214
ENCODING 244
SWIDTH 960 0
DWIDTH 8 0
BBX 6 8 1 0
BITMAP
30
78
00
78
CC
CC
CC
78
ENDCHAR
STARTCHAR char214
ENCODING 245
SWIDTH 960 0
DWIDTH 8 0
BBX 6 8 1 0
BITMAP
6C
D8
00
78
CC
CC
CC
78
ENDCHAR
STARTCHAR char214
ENCODING 246
SWIDTH 960 0
DWIDTH 8 0
BBX 6 7 1 0
BITMAP
CC
00
78
CC
CC
CC
78
ENDCHAR
STARTCHAR char247
ENCODING 247
SWIDTH 960 0
DWIDTH 8 0
BBX 6 5 1 1
BITMAP
30
00
FC
00
30
ENDCHAR
STARTCHAR char214
ENCODING 248
SWIDTH 960 0
DWIDTH 8 0
BBX 6 7 1 -1
BITMAP
0C
78
DC
FC
EC
78
C0
ENDCHAR
STARTCHAR char117
ENCODING 249
SWIDTH 960 0
DWIDTH 8 0
BBX 6 7 1 0
BITMAP
60
30
CC
CC
CC
CC
78
ENDCHAR
STARTCHAR char117
ENCODING 250
SWIDTH 960 0
DWIDTH 8 0
BBX 6 7 1 0
BITMAP
18
30
CC
CC
CC
CC
78
ENDCHAR
STARTCHAR char117
ENCODING 251
SWIDTH 960 0
DWIDTH 8 0
BBX 6 7 1 0
BITMAP
30
78
00
CC
CC
CC
78
ENDCHAR
STARTCHAR char117
ENCODING 252
SWIDTH 960 0
DWIDTH 8 0
BBX 6 7 1 0
BITMAP
CC
00
CC
CC
CC
CC
78
ENDCHAR
STARTCHAR char121
ENCODING 253
SWIDTH 960 0
DWIDTH 8 0
BBX 6 7 1 0
BITMAP
18
30
CC
78
30
30
30
ENDCHAR
STARTCHAR char112
ENCODING 254
SWIDTH 960 0
DWIDTH 8 0
BBX 6 7 1 0
BITMAP
C0
C0
FC
CC
FC
C0
C0
ENDCHAR
STARTCHAR char121
ENCODING 255
SWIDTH 960 0
DWIDTH 8 0
BBX 6 7 1 0
BITMAP
CC
00
CC
78
30
30
30
ENDCHAR
ENDFONT
